<svg width="20" height="21" viewBox="0 0 20 21" fill="none" xmlns="http://www.w3.org/2000/svg">
<path d="M6.66639 8.70182H9.99973M6.66639 11.6185H12.4997M10.4164 17.4518C14.3284 17.4518 17.4997 14.2805 17.4997 10.3685C17.4997 6.45647 14.3284 3.28516 10.4164 3.28516C6.50438 3.28516 3.33306 6.45647 3.33306 10.3685C3.33306 11.1602 3.46293 11.9215 3.70254 12.6323C3.7927 12.8998 3.83779 13.0336 3.84592 13.1363C3.85395 13.2378 3.84788 13.309 3.82277 13.4076C3.79735 13.5075 3.74122 13.6114 3.62897 13.8192L2.26593 16.3421C2.0715 16.702 1.97429 16.8819 1.99604 17.0208C2.01499 17.1418 2.08618 17.2483 2.19071 17.312C2.31071 17.3852 2.51414 17.3642 2.92101 17.3221L7.18853 16.881C7.31776 16.8676 7.38238 16.861 7.44128 16.8632C7.49921 16.8654 7.5401 16.8709 7.59659 16.8839C7.65402 16.8971 7.72625 16.925 7.87069 16.9806C8.66073 17.285 9.51908 17.4518 10.4164 17.4518Z" stroke="white" stroke-width="1.66667" stroke-linecap="round" stroke-linejoin="round"/>
</svg>
